<svg xmlns="http://www.w3.org/2000/svg" width="14" height="14" viewBox="0 0 14 14"><g fill="none"><path stroke="#4147d5" stroke-linecap="round" stroke-linejoin="round" d="M.5.5v13" stroke-width="1"/><path fill="#d7e0ff" d="M13.48 11.66a1 1 0 0 1-.52.88a1 1 0 0 1-1 0l-7.19-4.7a1 1 0 0 1 0-1.68l7.21-4.66a1 1 0 0 1 1 0a1 1 0 0 1 .52.88z"/><path stroke="#4147d5" stroke-linecap="round" stroke-linejoin="round" d="M13.48 11.66a1 1 0 0 1-.52.88a1 1 0 0 1-1 0l-7.19-4.7a1 1 0 0 1 0-1.68l7.21-4.66a1 1 0 0 1 1 0a1 1 0 0 1 .52.88z" stroke-width="1"/></g></svg>